G75*
%MOIN*%
%OFA0B0*%
%FSLAX24Y24*%
%IPPOS*%
%LPD*%
%AMOC8*
5,1,8,0,0,1.08239X$1,22.5*
%
%ADD10C,0.0000*%
D10*
X001898Y001011D02*
X001898Y031011D01*
X031898Y031011D01*
X031898Y001011D01*
X001898Y001011D01*
X009564Y002886D02*
X009566Y002939D01*
X009572Y002992D01*
X009582Y003044D01*
X009595Y003095D01*
X009613Y003145D01*
X009634Y003194D01*
X009659Y003241D01*
X009687Y003285D01*
X009719Y003328D01*
X009753Y003368D01*
X009791Y003406D01*
X009831Y003440D01*
X009874Y003472D01*
X009919Y003500D01*
X009965Y003525D01*
X010014Y003546D01*
X010064Y003564D01*
X010115Y003577D01*
X010167Y003587D01*
X010220Y003593D01*
X010273Y003595D01*
X010326Y003593D01*
X010379Y003587D01*
X010431Y003577D01*
X010482Y003564D01*
X010532Y003546D01*
X010581Y003525D01*
X010628Y003500D01*
X010672Y003472D01*
X010715Y003440D01*
X010755Y003406D01*
X010793Y003368D01*
X010827Y003328D01*
X010859Y003285D01*
X010887Y003240D01*
X010912Y003194D01*
X010933Y003145D01*
X010951Y003095D01*
X010964Y003044D01*
X010974Y002992D01*
X010980Y002939D01*
X010982Y002886D01*
X010980Y002833D01*
X010974Y002780D01*
X010964Y002728D01*
X010951Y002677D01*
X010933Y002627D01*
X010912Y002578D01*
X010887Y002531D01*
X010859Y002487D01*
X010827Y002444D01*
X010793Y002404D01*
X010755Y002366D01*
X010715Y002332D01*
X010672Y002300D01*
X010627Y002272D01*
X010581Y002247D01*
X010532Y002226D01*
X010482Y002208D01*
X010431Y002195D01*
X010379Y002185D01*
X010326Y002179D01*
X010273Y002177D01*
X010220Y002179D01*
X010167Y002185D01*
X010115Y002195D01*
X010064Y002208D01*
X010014Y002226D01*
X009965Y002247D01*
X009918Y002272D01*
X009874Y002300D01*
X009831Y002332D01*
X009791Y002366D01*
X009753Y002404D01*
X009719Y002444D01*
X009687Y002487D01*
X009659Y002532D01*
X009634Y002578D01*
X009613Y002627D01*
X009595Y002677D01*
X009582Y002728D01*
X009572Y002780D01*
X009566Y002833D01*
X009564Y002886D01*
X022814Y002886D02*
X022816Y002939D01*
X022822Y002992D01*
X022832Y003044D01*
X022845Y003095D01*
X022863Y003145D01*
X022884Y003194D01*
X022909Y003241D01*
X022937Y003285D01*
X022969Y003328D01*
X023003Y003368D01*
X023041Y003406D01*
X023081Y003440D01*
X023124Y003472D01*
X023169Y003500D01*
X023215Y003525D01*
X023264Y003546D01*
X023314Y003564D01*
X023365Y003577D01*
X023417Y003587D01*
X023470Y003593D01*
X023523Y003595D01*
X023576Y003593D01*
X023629Y003587D01*
X023681Y003577D01*
X023732Y003564D01*
X023782Y003546D01*
X023831Y003525D01*
X023878Y003500D01*
X023922Y003472D01*
X023965Y003440D01*
X024005Y003406D01*
X024043Y003368D01*
X024077Y003328D01*
X024109Y003285D01*
X024137Y003240D01*
X024162Y003194D01*
X024183Y003145D01*
X024201Y003095D01*
X024214Y003044D01*
X024224Y002992D01*
X024230Y002939D01*
X024232Y002886D01*
X024230Y002833D01*
X024224Y002780D01*
X024214Y002728D01*
X024201Y002677D01*
X024183Y002627D01*
X024162Y002578D01*
X024137Y002531D01*
X024109Y002487D01*
X024077Y002444D01*
X024043Y002404D01*
X024005Y002366D01*
X023965Y002332D01*
X023922Y002300D01*
X023877Y002272D01*
X023831Y002247D01*
X023782Y002226D01*
X023732Y002208D01*
X023681Y002195D01*
X023629Y002185D01*
X023576Y002179D01*
X023523Y002177D01*
X023470Y002179D01*
X023417Y002185D01*
X023365Y002195D01*
X023314Y002208D01*
X023264Y002226D01*
X023215Y002247D01*
X023168Y002272D01*
X023124Y002300D01*
X023081Y002332D01*
X023041Y002366D01*
X023003Y002404D01*
X022969Y002444D01*
X022937Y002487D01*
X022909Y002532D01*
X022884Y002578D01*
X022863Y002627D01*
X022845Y002677D01*
X022832Y002728D01*
X022822Y002780D01*
X022816Y002833D01*
X022814Y002886D01*
X029189Y023011D02*
X029191Y023064D01*
X029197Y023117D01*
X029207Y023169D01*
X029220Y023220D01*
X029238Y023270D01*
X029259Y023319D01*
X029284Y023366D01*
X029312Y023410D01*
X029344Y023453D01*
X029378Y023493D01*
X029416Y023531D01*
X029456Y023565D01*
X029499Y023597D01*
X029544Y023625D01*
X029590Y023650D01*
X029639Y023671D01*
X029689Y023689D01*
X029740Y023702D01*
X029792Y023712D01*
X029845Y023718D01*
X029898Y023720D01*
X029951Y023718D01*
X030004Y023712D01*
X030056Y023702D01*
X030107Y023689D01*
X030157Y023671D01*
X030206Y023650D01*
X030253Y023625D01*
X030297Y023597D01*
X030340Y023565D01*
X030380Y023531D01*
X030418Y023493D01*
X030452Y023453D01*
X030484Y023410D01*
X030512Y023365D01*
X030537Y023319D01*
X030558Y023270D01*
X030576Y023220D01*
X030589Y023169D01*
X030599Y023117D01*
X030605Y023064D01*
X030607Y023011D01*
X030605Y022958D01*
X030599Y022905D01*
X030589Y022853D01*
X030576Y022802D01*
X030558Y022752D01*
X030537Y022703D01*
X030512Y022656D01*
X030484Y022612D01*
X030452Y022569D01*
X030418Y022529D01*
X030380Y022491D01*
X030340Y022457D01*
X030297Y022425D01*
X030252Y022397D01*
X030206Y022372D01*
X030157Y022351D01*
X030107Y022333D01*
X030056Y022320D01*
X030004Y022310D01*
X029951Y022304D01*
X029898Y022302D01*
X029845Y022304D01*
X029792Y022310D01*
X029740Y022320D01*
X029689Y022333D01*
X029639Y022351D01*
X029590Y022372D01*
X029543Y022397D01*
X029499Y022425D01*
X029456Y022457D01*
X029416Y022491D01*
X029378Y022529D01*
X029344Y022569D01*
X029312Y022612D01*
X029284Y022657D01*
X029259Y022703D01*
X029238Y022752D01*
X029220Y022802D01*
X029207Y022853D01*
X029197Y022905D01*
X029191Y022958D01*
X029189Y023011D01*
X028520Y027869D02*
X028522Y027899D01*
X028528Y027929D01*
X028537Y027958D01*
X028550Y027985D01*
X028567Y028010D01*
X028586Y028033D01*
X028609Y028054D01*
X028634Y028071D01*
X028660Y028085D01*
X028689Y028095D01*
X028718Y028102D01*
X028748Y028105D01*
X028779Y028104D01*
X028809Y028099D01*
X028838Y028090D01*
X028865Y028078D01*
X028891Y028063D01*
X028915Y028044D01*
X028936Y028022D01*
X028954Y027998D01*
X028969Y027971D01*
X028980Y027943D01*
X028988Y027914D01*
X028992Y027884D01*
X028992Y027854D01*
X028988Y027824D01*
X028980Y027795D01*
X028969Y027767D01*
X028954Y027740D01*
X028936Y027716D01*
X028915Y027694D01*
X028891Y027675D01*
X028865Y027660D01*
X028838Y027648D01*
X028809Y027639D01*
X028779Y027634D01*
X028748Y027633D01*
X028718Y027636D01*
X028689Y027643D01*
X028660Y027653D01*
X028634Y027667D01*
X028609Y027684D01*
X028586Y027705D01*
X028567Y027728D01*
X028550Y027753D01*
X028537Y027780D01*
X028528Y027809D01*
X028522Y027839D01*
X028520Y027869D01*
X031304Y027869D02*
X031306Y027899D01*
X031312Y027929D01*
X031321Y027958D01*
X031334Y027985D01*
X031351Y028010D01*
X031370Y028033D01*
X031393Y028054D01*
X031418Y028071D01*
X031444Y028085D01*
X031473Y028095D01*
X031502Y028102D01*
X031532Y028105D01*
X031563Y028104D01*
X031593Y028099D01*
X031622Y028090D01*
X031649Y028078D01*
X031675Y028063D01*
X031699Y028044D01*
X031720Y028022D01*
X031738Y027998D01*
X031753Y027971D01*
X031764Y027943D01*
X031772Y027914D01*
X031776Y027884D01*
X031776Y027854D01*
X031772Y027824D01*
X031764Y027795D01*
X031753Y027767D01*
X031738Y027740D01*
X031720Y027716D01*
X031699Y027694D01*
X031675Y027675D01*
X031649Y027660D01*
X031622Y027648D01*
X031593Y027639D01*
X031563Y027634D01*
X031532Y027633D01*
X031502Y027636D01*
X031473Y027643D01*
X031444Y027653D01*
X031418Y027667D01*
X031393Y027684D01*
X031370Y027705D01*
X031351Y027728D01*
X031334Y027753D01*
X031321Y027780D01*
X031312Y027809D01*
X031306Y027839D01*
X031304Y027869D01*
X032000Y028565D02*
X032002Y028595D01*
X032008Y028625D01*
X032017Y028654D01*
X032030Y028681D01*
X032047Y028706D01*
X032066Y028729D01*
X032089Y028750D01*
X032114Y028767D01*
X032140Y028781D01*
X032169Y028791D01*
X032198Y028798D01*
X032228Y028801D01*
X032259Y028800D01*
X032289Y028795D01*
X032318Y028786D01*
X032345Y028774D01*
X032371Y028759D01*
X032395Y028740D01*
X032416Y028718D01*
X032434Y028694D01*
X032449Y028667D01*
X032460Y028639D01*
X032468Y028610D01*
X032472Y028580D01*
X032472Y028550D01*
X032468Y028520D01*
X032460Y028491D01*
X032449Y028463D01*
X032434Y028436D01*
X032416Y028412D01*
X032395Y028390D01*
X032371Y028371D01*
X032345Y028356D01*
X032318Y028344D01*
X032289Y028335D01*
X032259Y028330D01*
X032228Y028329D01*
X032198Y028332D01*
X032169Y028339D01*
X032140Y028349D01*
X032114Y028363D01*
X032089Y028380D01*
X032066Y028401D01*
X032047Y028424D01*
X032030Y028449D01*
X032017Y028476D01*
X032008Y028505D01*
X032002Y028535D01*
X032000Y028565D01*
X028520Y030653D02*
X028522Y030683D01*
X028528Y030713D01*
X028537Y030742D01*
X028550Y030769D01*
X028567Y030794D01*
X028586Y030817D01*
X028609Y030838D01*
X028634Y030855D01*
X028660Y030869D01*
X028689Y030879D01*
X028718Y030886D01*
X028748Y030889D01*
X028779Y030888D01*
X028809Y030883D01*
X028838Y030874D01*
X028865Y030862D01*
X028891Y030847D01*
X028915Y030828D01*
X028936Y030806D01*
X028954Y030782D01*
X028969Y030755D01*
X028980Y030727D01*
X028988Y030698D01*
X028992Y030668D01*
X028992Y030638D01*
X028988Y030608D01*
X028980Y030579D01*
X028969Y030551D01*
X028954Y030524D01*
X028936Y030500D01*
X028915Y030478D01*
X028891Y030459D01*
X028865Y030444D01*
X028838Y030432D01*
X028809Y030423D01*
X028779Y030418D01*
X028748Y030417D01*
X028718Y030420D01*
X028689Y030427D01*
X028660Y030437D01*
X028634Y030451D01*
X028609Y030468D01*
X028586Y030489D01*
X028567Y030512D01*
X028550Y030537D01*
X028537Y030564D01*
X028528Y030593D01*
X028522Y030623D01*
X028520Y030653D01*
X029216Y031349D02*
X029218Y031379D01*
X029224Y031409D01*
X029233Y031438D01*
X029246Y031465D01*
X029263Y031490D01*
X029282Y031513D01*
X029305Y031534D01*
X029330Y031551D01*
X029356Y031565D01*
X029385Y031575D01*
X029414Y031582D01*
X029444Y031585D01*
X029475Y031584D01*
X029505Y031579D01*
X029534Y031570D01*
X029561Y031558D01*
X029587Y031543D01*
X029611Y031524D01*
X029632Y031502D01*
X029650Y031478D01*
X029665Y031451D01*
X029676Y031423D01*
X029684Y031394D01*
X029688Y031364D01*
X029688Y031334D01*
X029684Y031304D01*
X029676Y031275D01*
X029665Y031247D01*
X029650Y031220D01*
X029632Y031196D01*
X029611Y031174D01*
X029587Y031155D01*
X029561Y031140D01*
X029534Y031128D01*
X029505Y031119D01*
X029475Y031114D01*
X029444Y031113D01*
X029414Y031116D01*
X029385Y031123D01*
X029356Y031133D01*
X029330Y031147D01*
X029305Y031164D01*
X029282Y031185D01*
X029263Y031208D01*
X029246Y031233D01*
X029233Y031260D01*
X029224Y031289D01*
X029218Y031319D01*
X029216Y031349D01*
X004804Y030653D02*
X004806Y030683D01*
X004812Y030713D01*
X004821Y030742D01*
X004834Y030769D01*
X004851Y030794D01*
X004870Y030817D01*
X004893Y030838D01*
X004918Y030855D01*
X004944Y030869D01*
X004973Y030879D01*
X005002Y030886D01*
X005032Y030889D01*
X005063Y030888D01*
X005093Y030883D01*
X005122Y030874D01*
X005149Y030862D01*
X005175Y030847D01*
X005199Y030828D01*
X005220Y030806D01*
X005238Y030782D01*
X005253Y030755D01*
X005264Y030727D01*
X005272Y030698D01*
X005276Y030668D01*
X005276Y030638D01*
X005272Y030608D01*
X005264Y030579D01*
X005253Y030551D01*
X005238Y030524D01*
X005220Y030500D01*
X005199Y030478D01*
X005175Y030459D01*
X005149Y030444D01*
X005122Y030432D01*
X005093Y030423D01*
X005063Y030418D01*
X005032Y030417D01*
X005002Y030420D01*
X004973Y030427D01*
X004944Y030437D01*
X004918Y030451D01*
X004893Y030468D01*
X004870Y030489D01*
X004851Y030512D01*
X004834Y030537D01*
X004821Y030564D01*
X004812Y030593D01*
X004806Y030623D01*
X004804Y030653D01*
X004108Y031349D02*
X004110Y031379D01*
X004116Y031409D01*
X004125Y031438D01*
X004138Y031465D01*
X004155Y031490D01*
X004174Y031513D01*
X004197Y031534D01*
X004222Y031551D01*
X004248Y031565D01*
X004277Y031575D01*
X004306Y031582D01*
X004336Y031585D01*
X004367Y031584D01*
X004397Y031579D01*
X004426Y031570D01*
X004453Y031558D01*
X004479Y031543D01*
X004503Y031524D01*
X004524Y031502D01*
X004542Y031478D01*
X004557Y031451D01*
X004568Y031423D01*
X004576Y031394D01*
X004580Y031364D01*
X004580Y031334D01*
X004576Y031304D01*
X004568Y031275D01*
X004557Y031247D01*
X004542Y031220D01*
X004524Y031196D01*
X004503Y031174D01*
X004479Y031155D01*
X004453Y031140D01*
X004426Y031128D01*
X004397Y031119D01*
X004367Y031114D01*
X004336Y031113D01*
X004306Y031116D01*
X004277Y031123D01*
X004248Y031133D01*
X004222Y031147D01*
X004197Y031164D01*
X004174Y031185D01*
X004155Y031208D01*
X004138Y031233D01*
X004125Y031260D01*
X004116Y031289D01*
X004110Y031319D01*
X004108Y031349D01*
X001324Y028565D02*
X001326Y028595D01*
X001332Y028625D01*
X001341Y028654D01*
X001354Y028681D01*
X001371Y028706D01*
X001390Y028729D01*
X001413Y028750D01*
X001438Y028767D01*
X001464Y028781D01*
X001493Y028791D01*
X001522Y028798D01*
X001552Y028801D01*
X001583Y028800D01*
X001613Y028795D01*
X001642Y028786D01*
X001669Y028774D01*
X001695Y028759D01*
X001719Y028740D01*
X001740Y028718D01*
X001758Y028694D01*
X001773Y028667D01*
X001784Y028639D01*
X001792Y028610D01*
X001796Y028580D01*
X001796Y028550D01*
X001792Y028520D01*
X001784Y028491D01*
X001773Y028463D01*
X001758Y028436D01*
X001740Y028412D01*
X001719Y028390D01*
X001695Y028371D01*
X001669Y028356D01*
X001642Y028344D01*
X001613Y028335D01*
X001583Y028330D01*
X001552Y028329D01*
X001522Y028332D01*
X001493Y028339D01*
X001464Y028349D01*
X001438Y028363D01*
X001413Y028380D01*
X001390Y028401D01*
X001371Y028424D01*
X001354Y028449D01*
X001341Y028476D01*
X001332Y028505D01*
X001326Y028535D01*
X001324Y028565D01*
X002020Y027869D02*
X002022Y027899D01*
X002028Y027929D01*
X002037Y027958D01*
X002050Y027985D01*
X002067Y028010D01*
X002086Y028033D01*
X002109Y028054D01*
X002134Y028071D01*
X002160Y028085D01*
X002189Y028095D01*
X002218Y028102D01*
X002248Y028105D01*
X002279Y028104D01*
X002309Y028099D01*
X002338Y028090D01*
X002365Y028078D01*
X002391Y028063D01*
X002415Y028044D01*
X002436Y028022D01*
X002454Y027998D01*
X002469Y027971D01*
X002480Y027943D01*
X002488Y027914D01*
X002492Y027884D01*
X002492Y027854D01*
X002488Y027824D01*
X002480Y027795D01*
X002469Y027767D01*
X002454Y027740D01*
X002436Y027716D01*
X002415Y027694D01*
X002391Y027675D01*
X002365Y027660D01*
X002338Y027648D01*
X002309Y027639D01*
X002279Y027634D01*
X002248Y027633D01*
X002218Y027636D01*
X002189Y027643D01*
X002160Y027653D01*
X002134Y027667D01*
X002109Y027684D01*
X002086Y027705D01*
X002067Y027728D01*
X002050Y027753D01*
X002037Y027780D01*
X002028Y027809D01*
X002022Y027839D01*
X002020Y027869D01*
X004804Y027869D02*
X004806Y027899D01*
X004812Y027929D01*
X004821Y027958D01*
X004834Y027985D01*
X004851Y028010D01*
X004870Y028033D01*
X004893Y028054D01*
X004918Y028071D01*
X004944Y028085D01*
X004973Y028095D01*
X005002Y028102D01*
X005032Y028105D01*
X005063Y028104D01*
X005093Y028099D01*
X005122Y028090D01*
X005149Y028078D01*
X005175Y028063D01*
X005199Y028044D01*
X005220Y028022D01*
X005238Y027998D01*
X005253Y027971D01*
X005264Y027943D01*
X005272Y027914D01*
X005276Y027884D01*
X005276Y027854D01*
X005272Y027824D01*
X005264Y027795D01*
X005253Y027767D01*
X005238Y027740D01*
X005220Y027716D01*
X005199Y027694D01*
X005175Y027675D01*
X005149Y027660D01*
X005122Y027648D01*
X005093Y027639D01*
X005063Y027634D01*
X005032Y027633D01*
X005002Y027636D01*
X004973Y027643D01*
X004944Y027653D01*
X004918Y027667D01*
X004893Y027684D01*
X004870Y027705D01*
X004851Y027728D01*
X004834Y027753D01*
X004821Y027780D01*
X004812Y027809D01*
X004806Y027839D01*
X004804Y027869D01*
X003189Y023011D02*
X003191Y023064D01*
X003197Y023117D01*
X003207Y023169D01*
X003220Y023220D01*
X003238Y023270D01*
X003259Y023319D01*
X003284Y023366D01*
X003312Y023410D01*
X003344Y023453D01*
X003378Y023493D01*
X003416Y023531D01*
X003456Y023565D01*
X003499Y023597D01*
X003544Y023625D01*
X003590Y023650D01*
X003639Y023671D01*
X003689Y023689D01*
X003740Y023702D01*
X003792Y023712D01*
X003845Y023718D01*
X003898Y023720D01*
X003951Y023718D01*
X004004Y023712D01*
X004056Y023702D01*
X004107Y023689D01*
X004157Y023671D01*
X004206Y023650D01*
X004253Y023625D01*
X004297Y023597D01*
X004340Y023565D01*
X004380Y023531D01*
X004418Y023493D01*
X004452Y023453D01*
X004484Y023410D01*
X004512Y023365D01*
X004537Y023319D01*
X004558Y023270D01*
X004576Y023220D01*
X004589Y023169D01*
X004599Y023117D01*
X004605Y023064D01*
X004607Y023011D01*
X004605Y022958D01*
X004599Y022905D01*
X004589Y022853D01*
X004576Y022802D01*
X004558Y022752D01*
X004537Y022703D01*
X004512Y022656D01*
X004484Y022612D01*
X004452Y022569D01*
X004418Y022529D01*
X004380Y022491D01*
X004340Y022457D01*
X004297Y022425D01*
X004252Y022397D01*
X004206Y022372D01*
X004157Y022351D01*
X004107Y022333D01*
X004056Y022320D01*
X004004Y022310D01*
X003951Y022304D01*
X003898Y022302D01*
X003845Y022304D01*
X003792Y022310D01*
X003740Y022320D01*
X003689Y022333D01*
X003639Y022351D01*
X003590Y022372D01*
X003543Y022397D01*
X003499Y022425D01*
X003456Y022457D01*
X003416Y022491D01*
X003378Y022529D01*
X003344Y022569D01*
X003312Y022612D01*
X003284Y022657D01*
X003259Y022703D01*
X003238Y022752D01*
X003220Y022802D01*
X003207Y022853D01*
X003197Y022905D01*
X003191Y022958D01*
X003189Y023011D01*
M02*
