%
M48
M72
T01C0.0120
T02C0.0315
T03C0.0320
T04C0.0394
T05C0.0400
T06C0.0440
T07C0.0472
T08C0.0512
T09C0.0550
T10C0.0591
T11C0.0787
T12C0.1417
%
T01
X11398Y6011
X13398Y6011
X9898Y8011
X20398Y5511
X27898Y9511
X26398Y11011
X24898Y10511
X21898Y10511
X23398Y17011
X22898Y17511
X25398Y19511
X25898Y19511
X28898Y18011
X20898Y22511
X20398Y22011
X20898Y23511
X20898Y24011
X20898Y24511
X20398Y24511
T02
X18091Y18318
X19205Y17204
X15455Y18068
X14341Y16954
X31071Y10114
X31071Y9334
X31071Y8554
T03
X28334Y10947
X28334Y11701
X27120Y11737
X27084Y10947
X26212Y8826
X24962Y8826
X24459Y8197
X22337Y6076
X17398Y11761
X16398Y11761
X10459Y13572
X9898Y15011
X8898Y15011
X7898Y15011
X6898Y15011
X6459Y13572
X8337Y11451
X6698Y10361
X6048Y9361
X7441Y8425
X6734Y7718
X6027Y7011
X4773Y7511
X2773Y7511
X3048Y9361
X3698Y10361
X4337Y11451
X8148Y9133
X10269Y7011
X9562Y6304
X8855Y5597
X10182Y5502
X8148Y4890
X12303Y7624
X23898Y15011
X24898Y15011
X25898Y15011
X26898Y15011
X26212Y13822
X24999Y13859
X24898Y18011
X23898Y18011
X23837Y18951
X25087Y18951
X25898Y18011
X26898Y18011
X26872Y19186
X28780Y19068
X28286Y20600
X27209Y21072
X25959Y21072
X30194Y20482
X26605Y24371
X27905Y25554
X26490Y26968
X25191Y25785
X9898Y18011
X8898Y18011
X7898Y18011
X6898Y18011
X5276Y19228
X3862Y20642
X5837Y21572
X7337Y21572
X7959Y19451
X9459Y19451
X7411Y24222
X6200Y25329
X7614Y26743
X8825Y25636
T04
X5654Y17496
X5654Y16511
X5654Y15527
X5401Y5906
X6097Y5210
X6793Y4514
X12390Y2065
X14378Y3620
X16366Y2084
X17390Y2070
X19378Y3620
X21366Y2089
X25982Y5535
X26678Y6231
X27374Y6927
X23630Y10701
X25752Y11408
X24337Y12822
X28142Y15527
X28142Y16511
X28142Y17496
T05
X11398Y17011
X11398Y16011
X9898Y9511
X10648Y8761
X10898Y29011
X11898Y29011
X12898Y29011
X13898Y29011
X14898Y29011
X15948Y29011
X16898Y29011
X17898Y29011
X18898Y29011
X19898Y29011
X20898Y29011
X21898Y29011
X22898Y29011
X22898Y30011
X21898Y30011
X20898Y30011
X19898Y30011
X18898Y30011
X17898Y30011
X16898Y30011
X15898Y30011
X14898Y30011
X13898Y30011
X12898Y30011
X11898Y30011
X10898Y30011
T06
X8262Y13625
X6034Y11398
T07
X26212Y3217
X27604Y1825
X31084Y5305
X29692Y6697
X28756Y27869
X31540Y27869
X32236Y28565
X28756Y30653
X29452Y31349
X5040Y30653
X4344Y31349
X1560Y28565
X2256Y27869
X5040Y27869
T08
X4344Y27173
X3648Y26477
X5736Y28565
X6432Y29261
X3648Y29261
X27364Y29261
X28060Y28565
X29452Y27173
X30148Y26477
X30148Y29261
T09
X19398Y2261
X14398Y2261
T10
X31071Y7654
X31071Y11014
T11
X5373Y2036
X2923Y4486
X2898Y14779
X2898Y18244
X27402Y3058
X29851Y5508
X30898Y14779
X30898Y18244
T12
X29898Y23011
X3898Y23011
X10273Y2886
X23523Y2886
M30
